# xmcd
# 
# Track frame offsets:
#     150
#     12637
#     28403
#     51033
#     70446
#     94195
#     117336
#     137671
#     157439
#     167566
#     185753
# 
# Disc length: 2781
# 
# Revision: 1
# Processed by: cddbd v1.5.2PL0 Copyright (c) Steve Scherf et al.
# Submitted via: fre:ac v1.0.27
# 
DISCID=a60adb0b
DTITLE=Ian Siegal and the Mississippi Mudbloods - Candy Store Kid
DYEAR=2012
DGENRE=Blues
TTITLE0=Bayou Country
TTITLE1=Loose Cannon
TTITLE2=I Am the Train
TTITLE3=So Much Trouble
TTITLE4=Kingfish
TTITLE5=The Fear
TTITLE6=Earlie Grace Jnr
TTITLE7=Green Power
TTITLE8=Strong Woman
TTITLE9=Rodeo
TTITLE10=Hard Pressed (What Da Fuzz?)
EXTD=
EXTT0=
EXTT1=
EXTT2=
EXTT3=
EXTT4=
EXTT5=
EXTT6=
EXTT7=
EXTT8=
EXTT9=
EXTT10=
PLAYORDER=
